<svg width="87" height="73" viewBox="0 0 87 73" fill="none" xmlns="http://www.w3.org/2000/svg">
<path d="M30.6875 55.2356H56.3194C56.7466 55.2356 57.0961 54.8842 57.0961 54.4547V46.2558C57.0961 45.8263 56.7466 45.4749 56.3194 45.4749H52.4358C52.0086 45.4749 51.6591 45.8263 51.6591 46.2558V49.7696H35.3478V46.2558C35.3478 45.8263 34.9983 45.4749 34.5711 45.4749H30.6875C30.2603 45.4749 29.9108 45.8263 29.9108 46.2558V54.4547C29.9108 54.8842 30.2603 55.2356 30.6875 55.2356ZM63.6983 43.23C63.6983 44.2655 64.1075 45.2585 64.8358 45.9907C65.5641 46.7229 66.5519 47.1342 67.5819 47.1342C68.6119 47.1342 69.5997 46.7229 70.3281 45.9907C71.0564 45.2585 71.4655 44.2655 71.4655 43.23C71.4655 42.1945 71.0564 41.2014 70.3281 40.4692C69.5997 39.7371 68.6119 39.3257 67.5819 39.3257C66.5519 39.3257 65.5641 39.7371 64.8358 40.4692C64.1075 41.2014 63.6983 42.1945 63.6983 43.23ZM86.903 26.8711L84.6019 22.8302C84.4985 22.6521 84.3291 22.5223 84.1308 22.4693C83.9325 22.4162 83.7215 22.4442 83.5436 22.5471L78.6211 25.4363L71.0189 4.33374C70.6176 3.07455 69.8285 1.97619 68.7657 1.19722C67.7029 0.418259 66.4214 -0.000992363 65.1061 1.76387e-06H23.0367C19.6677 1.76387e-06 16.6773 2.18639 15.6384 5.41717L8.39547 25.446L3.46327 22.5569C3.28545 22.454 3.07435 22.426 2.87606 22.479C2.67778 22.5321 2.50843 22.6618 2.40498 22.84L0.103934 26.8711C-0.109665 27.242 0.0165528 27.7105 0.385497 27.9253L6.24977 31.361L4.84196 35.2653C4.72545 35.5776 4.66719 35.9095 4.66719 36.2413V70.228C4.66719 71.7604 5.81286 73 7.22068 73H13.784C14.9782 73 16.0171 72.0923 16.2695 70.8234L17.0171 67.1436H69.9898L70.7374 70.8234C70.9995 72.0923 72.0287 73 73.2229 73H79.7862C81.194 73 82.3397 71.7604 82.3397 70.228V36.2413C82.3397 35.9095 82.2814 35.5776 82.1649 35.2653L80.7571 31.361L86.6117 27.9253C86.7879 27.8229 86.9172 27.6552 86.9717 27.458C87.0261 27.2609 87.0015 27.0501 86.903 26.8711ZM75.3492 36.9832V60.1159H11.6577V36.9832L13.1723 32.7861H73.8346L75.3492 36.9832ZM22.2115 7.80853L22.26 7.68164L22.2989 7.55475C22.4057 7.23265 22.6969 7.01792 23.0367 7.01792H64.5527L71.8733 27.3201H15.153L22.2115 7.80853ZM15.5413 43.23C15.5413 44.2655 15.9505 45.2585 16.6788 45.9907C17.4072 46.7229 18.395 47.1342 19.425 47.1342C20.455 47.1342 21.4428 46.7229 22.1711 45.9907C22.8994 45.2585 23.3086 44.2655 23.3086 43.23C23.3086 42.1945 22.8994 41.2014 22.1711 40.4692C21.4428 39.7371 20.455 39.3257 19.425 39.3257C18.395 39.3257 17.4072 39.7371 16.6788 40.4692C15.9505 41.2014 15.5413 42.1945 15.5413 43.23Z" fill="black"/>
</svg>
