<svg width="95" height="95" viewBox="0 0 95 95" fill="none" xmlns="http://www.w3.org/2000/svg">
<path d="M26.7188 39.0576C26.7188 40.2387 27.1879 41.3713 28.023 42.2065C28.8582 43.0416 29.9908 43.5107 31.1719 43.5107C32.3529 43.5107 33.4856 43.0416 34.3207 42.2065C35.1558 41.3713 35.625 40.2387 35.625 39.0576C35.625 37.8766 35.1558 36.7439 34.3207 35.9088C33.4856 35.0737 32.3529 34.6045 31.1719 34.6045C29.9908 34.6045 28.8582 35.0737 28.023 35.9088C27.1879 36.7439 26.7188 37.8766 26.7188 39.0576ZM59.375 39.0576C59.375 40.2387 59.8442 41.3713 60.6793 42.2065C61.5144 43.0416 62.6471 43.5107 63.8281 43.5107C65.0092 43.5107 66.1418 43.0416 66.977 42.2065C67.8121 41.3713 68.2812 40.2387 68.2812 39.0576C68.2812 37.8766 67.8121 36.7439 66.977 35.9088C66.1418 35.0737 65.0092 34.6045 63.8281 34.6045C62.6471 34.6045 61.5144 35.0737 60.6793 35.9088C59.8442 36.7439 59.375 37.8766 59.375 39.0576ZM47.5 5.9375C24.5479 5.9375 5.9375 24.5479 5.9375 47.5C5.9375 70.4521 24.5479 89.0625 47.5 89.0625C70.4521 89.0625 89.0625 70.4521 89.0625 47.5C89.0625 24.5479 70.4521 5.9375 47.5 5.9375ZM71.8994 71.8994C68.7266 75.0723 65.0342 77.5586 60.9243 79.3027C56.6846 81.1025 52.1665 82.0117 47.5 82.0117C42.8335 82.0117 38.3154 81.1025 34.0664 79.3027C29.9628 77.5696 26.2352 75.0552 23.0913 71.8994C19.9185 68.7266 17.4321 65.0342 15.688 60.9243C13.8975 56.6846 12.9883 52.1665 12.9883 47.5C12.9883 42.8335 13.8975 38.3154 15.6973 34.0664C17.4303 29.9628 19.9448 26.2352 23.1006 23.0913C26.2734 19.9185 29.9658 17.4321 34.0757 15.688C38.3154 13.8975 42.8335 12.9883 47.5 12.9883C52.1665 12.9883 56.6846 13.8975 60.9336 15.6973C65.0372 17.4303 68.7648 19.9448 71.9087 23.1006C75.0815 26.2734 77.5679 29.9658 79.312 34.0757C81.1025 38.3154 82.0117 42.8335 82.0117 47.5C82.0117 52.1665 81.1025 56.6846 79.3027 60.9336C77.5718 65.0356 75.057 68.7605 71.8994 71.8994ZM61.6016 49.4482H57.1392C56.7495 49.4482 56.4155 49.7451 56.3877 50.1348C56.0352 54.7271 52.1851 58.3545 47.5 58.3545C42.8149 58.3545 38.9556 54.7271 38.6123 50.1348C38.5845 49.7451 38.2505 49.4482 37.8608 49.4482H33.3984C33.2978 49.4481 33.1981 49.4685 33.1056 49.5081C33.013 49.5477 32.9295 49.6057 32.8601 49.6786C32.7906 49.7515 32.7368 49.8377 32.7017 49.9321C32.6667 50.0265 32.6512 50.127 32.6562 50.2275C33.0645 58.0483 39.5679 64.292 47.5 64.292C55.4321 64.292 61.9355 58.0483 62.3438 50.2275C62.3488 50.127 62.3333 50.0265 62.2983 49.9321C62.2632 49.8377 62.2094 49.7515 62.1399 49.6786C62.0705 49.6057 61.987 49.5477 61.8944 49.5081C61.8019 49.4685 61.7022 49.4481 61.6016 49.4482Z" fill="black"/>
</svg>
